<?xml version="1.0" encoding="utf-8"?>
<!-- Generator: Adobe Illustrator 25.2.1, SVG Export Plug-In . SVG Version: 6.00 Build 0)  -->
<svg version="1.1" id="trazado" xmlns="http://www.w3.org/2000/svg" xmlns:xlink="http://www.w3.org/1999/xlink" x="0px" y="0px"
	 viewBox="0 0 718.1 457.9" style="enable-background:new 0 0 718.1 457.9;" xml:space="preserve">
<style type="text/css">
	.st0{fill:none;stroke:#FFFFFF;stroke-linecap:round;stroke-miterlimit:10;}
	.st1{fill:none;stroke:#012C58;stroke-linecap:round;stroke-miterlimit:10;}
	.st2{fill:#95E5D8;}
	.st3{fill:none;stroke:#FFFFFF;stroke-linecap:round;stroke-linejoin:round;stroke-miterlimit:10;}
	.st4{fill:none;stroke:#012C58;stroke-width:0.9922;stroke-linecap:round;stroke-miterlimit:10;}
	.st5{fill:none;stroke:#FFFFFF;stroke-width:0.6295;stroke-linecap:round;stroke-linejoin:round;stroke-miterlimit:10;}
	.st6{fill:none;stroke:#FFFFFF;stroke-width:0.6295;stroke-linecap:round;stroke-miterlimit:10;}
	.st7{fill:#021E3E;}
	.st8{fill:#012C58;}
	.st9{fill:#ECECEC;}
	.st10{fill:none;stroke:#012C58;stroke-width:0.7816;stroke-linecap:round;stroke-miterlimit:10;}
	.st11{fill:#FFFFFF;}
	.st12{fill:#4C93ED;}
	.st13{fill:none;stroke:#012C58;stroke-width:0.7288;stroke-linecap:round;stroke-miterlimit:10;}
	.st14{fill:#FFD6D7;}
	.st15{fill:#FFE3E5;}
	.st16{fill:#E0E0E0;}
	.st17{fill:#C3EDE5;}
	.st18{fill:none;stroke:#012C58;stroke-width:1.1194;stroke-linecap:round;stroke-miterlimit:10;}
	.st19{fill:#0373E8;}
	.st20{fill:none;stroke:#012C58;stroke-width:0.7462;stroke-linecap:round;stroke-miterlimit:10;}
</style>
<path class="st0" d="M128.4,271"/>
<g>
	<path id="_x3C_Trazado_x3E__32_" class="st1" d="M98.7,331.3c-0.5-6.8-0.9-13.5-1.2-20.3c-0.3-6.8-0.7-13.5-1.4-20.2
		c-0.3-3.3-0.7-6.7-1.2-10c-0.5-3.3-1-6.5-2-9.7c-0.7-2.4-1.6-4.9-3.3-6.8c-1.6-1.9-4-3.2-6.6-2.8c-3,0.4-5.4,2.2-7.5,4.2
		c-2.3,2.3-4.5,4.7-6.7,7.2c-0.5,0.6-1.1,1.2-1.6,1.9c0,0.1,0,0.1,0.1,0.1"/>
	<g id="_x3C_Trazado_x3E__31_">
		<path class="st2" d="M75.4,266.3c-0.4,0.4-1,0.1-1-0.5c0.2-2.4,0-6.5-3.6-7.2c-5-0.9-14.9,19.3-12.7,44.3c0,0.5,0.6,0.7,1,0.4
			c4-3.5,20.8-18.4,25.3-29.7C89.1,261.6,80.9,261,75.4,266.3z"/>
		<path class="st3" d="M59.8,301.5c1.1-19.4,14.1-33.7,14.1-33.7s-1.6,8.4,1.4,13.6"/>
		<path class="st0" d="M60.6,285.6"/>
		<path class="st0" d="M64.9,285.3"/>
		<path class="st3" d="M73.9,267.8c0,0-7.9,2.5-9.7,4.6"/>
		<path class="st3" d="M67.2,277.4c0,0-0.1,5.3,1.3,8.7"/>
		<path class="st3" d="M67.7,276.6c0,0-4.8,1.8-6.3,3.8"/>
		<path class="st3" d="M62.7,287.3c0,0-0.5,4.2,0.3,6.5"/>
	</g>
	<path id="_x3C_Trazado_x3E__30_" class="st4" d="M114.5,304.4c-0.8-9.3-1.2-18.7-1.6-28c-0.4-9.3-1-18.6-2-27.9
		c-0.5-4.6-1-9.2-1.7-13.8c-0.6-4.5-1.4-9-2.7-13.4c-1-3.3-2.3-6.7-4.5-9.4c-2.2-2.7-5.5-4.4-9.1-3.9c-4.1,0.5-7.5,3.1-10.3,5.9
		c-3.2,3.1-6.2,6.5-9.2,9.9c-0.8,0.8-1.5,1.7-2.3,2.6c-0.1,0.1,0,0.2,0.1,0.1"/>
	<path class="st2" d="M84.1,212.5c-0.7,0.3-1.4-0.3-1.1-1c1.2-3.2,2.4-8.7-2-10.9c-6.3-3.2-27.1,19.9-33.7,53.9
		c-0.1,0.7,0.5,1.2,1.2,0.9c6.7-3.1,34.5-16.5,44.7-29.8C104.1,211.6,93.4,207.7,84.1,212.5z"/>
	<path class="st3" d="M50.1,253.2c8.9-25.3,31.5-39.3,31.5-39.3s-5.2,10.5-3.3,18.6"/>
	<path class="st0" d="M57.3,232.5"/>
	<path class="st0" d="M63.1,233.8"/>
	<path class="st3" d="M81.6,213.9c0,0-11.4,0.4-14.6,2.4"/>
	<path class="st3" d="M69.1,224.2c0,0-2.1,7-1.6,12.1"/>
	<path class="st3" d="M70.1,223.2c0,0-7,0.6-9.8,2.6"/>
	<path class="st3" d="M59.4,235.6c0,0-2.2,5.4-2.1,8.7"/>
	<path id="_x3C_Trazado_x3E__29_" class="st1" d="M95.4,309.9c0.5-6,0.8-12.1,1-18.1c0.3-6,0.7-12,1.3-18c0.3-3,0.6-6,1.1-8.9
		c0.4-2.9,0.9-5.8,1.7-8.6c0.6-2.2,1.5-4.3,2.9-6.1c1.4-1.7,3.6-2.8,5.9-2.5c2.7,0.3,4.8,2,6.7,3.8c2.1,2,4,4.2,5.9,6.4
		c0.5,0.5,1,1.1,1.5,1.6c0,0,0,0.1-0.1,0.1"/>
	<path class="st2" d="M116.8,252.8c0.3,0.4,0.9,0.1,0.9-0.3c0-2.2,0.5-5.8,3.7-6.1c4.5-0.4,11.7,18.3,7.8,40.3
		c-0.1,0.4-0.6,0.6-0.9,0.3c-3.3-3.4-16.9-17.9-20-28.3C105,247.5,112.3,247.7,116.8,252.8z"/>
	<path class="st3" d="M127.8,285.2c0.5-17.3-9.8-31-9.8-31s0.7,7.5-2.3,12"/>
	<path class="st0" d="M124.5,270.5"/>
	<path class="st3" d="M118,254.2c0,0,6.8,2.9,8.3,4.8"/>
	<path class="st3" d="M123.2,263.3c0,0-0.3,4.7-1.8,7.6"/>
	<path class="st3" d="M122.8,262.5c0,0,4.1,2,5.3,3.8"/>
	<path class="st3" d="M126.4,272.4c0,0,0.1,3.8-0.8,5.7"/>
	<path id="_x3C_Trazado_x3E__28_" class="st1" d="M97.8,291.5c0.5-6-6.6-41.2-2.4-60.7c3.3-15.1,14.9-6.1,16.7-4.3"/>
	<g id="_x3C_Trazado_x3E__27_">
		<path class="st2" d="M110.4,226.1c0.5,0.1,0.8-0.4,0.5-0.8c-1.3-1.8-3-5-0.6-7.1c3.4-3,20.3,7.8,30.1,27.9
			c0.2,0.4-0.1,0.8-0.6,0.8c-4.7-0.8-24.3-4.4-32.9-11C97.8,228.8,103.7,224.6,110.4,226.1z"/>
		<path class="st3" d="M138.4,245.7c-9.8-14.2-26.3-19.2-26.3-19.2s5,5.6,5.2,11"/>
		<path class="st0" d="M130.5,233.9"/>
		<path class="st0" d="M127,235.8"/>
		<path class="st3" d="M112.2,226.5c0,0,7.2-1.7,9.5-1"/>
		<path class="st3" d="M121.7,230.8c0,0,2.5,4,3.1,7.2"/>
		<path class="st3" d="M120.9,230.4c0,0,4.5-0.8,6.5,0"/>
		<path class="st3" d="M129.7,236.3c0,0,2.3,3,2.8,5.1"/>
	</g>
	<path id="_x3C_Trazado_x3E__26_" class="st1" d="M95.4,307c0.5-6,3.7-66.8,4-72.8c0.3-6,0.7-12,1.3-18c0.3-3,0.6-6,1.1-8.9
		c0.4-2.9,0.9-5.8,1.7-8.6c0.6-2.2,1.5-4.3,2.9-6.1c1.4-1.7,3.6-2.8,5.9-2.5c2.7,0.3,4.8,2,6.7,3.8c2.1,2,4,4.2,5.9,6.4
		c0.5,0.5,1,1.1,1.5,1.6c0,0,0,0.1-0.1,0.1"/>
	<g id="_x3C_Trazado_x3E__25_">
		<path class="st2" d="M120.9,195.4c0.2,0.2,0.6,0.1,0.6-0.2c0-1.4,0.3-3.6,2.3-3.9c2.8-0.3,7.6,11.3,5.5,25.2
			c0,0.3-0.4,0.4-0.6,0.2c-2.1-2.1-10.9-11-13-17.5C113.4,192.3,118,192.3,120.9,195.4z"/>
		<path class="st5" d="M128.4,215.7c0.1-10.9-6.7-19.3-6.7-19.3s0.6,4.7-1.3,7.6"/>
		<path class="st6" d="M128.5,206.8"/>
		<path class="st6" d="M126.1,206.5"/>
		<path class="st5" d="M121.7,196.3c0,0,4.3,1.7,5.3,2.9"/>
		<path class="st5" d="M125.1,201.9c0,0-0.1,3-1,4.8"/>
		<path class="st5" d="M124.9,201.5c0,0,2.6,1.2,3.4,2.3"/>
		<path class="st5" d="M127.3,207.7c0,0,0.1,2.4-0.4,3.6"/>
	</g>
	<polygon id="_x3C_Trazado_x3E__24_" class="st7" points="80.9,290 81.9,301.1 85.2,338.8 114.7,338.8 118.8,301.1 120.1,290 	"/>
	<polygon id="_x3C_Trazado_x3E__23_" class="st8" points="80.9,290 81.9,301.1 118.8,301.1 120.1,290 	"/>
	<path id="_x3C_Trazado_x3E__22_" class="st7" d="M80.9,296h39.2c1.6,0,2.9-1.3,2.9-2.9v-3.3c0-1.6-1.3-2.9-2.9-2.9H80.9
		c-1.6,0-2.9,1.3-2.9,2.9v3.3C78,294.7,79.3,296,80.9,296z"/>
</g>
<g>
	<line class="st9" x1="80.7" y1="374.9" x2="80.7" y2="379.5"/>
	<rect x="79.9" y="374.9" class="st8" width="1.5" height="4.6"/>
</g>
<path id="Vector_61_9_" class="st10" d="M437,403.2c2.1,2.5,3.6,6.3,2.7,9.5"/>
<path id="Vector_61_8_" class="st10" d="M434.1,401.8c2.1,2.5,3.6,6.3,2.7,9.5"/>
<path id="Vector_61_7_" class="st10" d="M431.1,400.4c2.1,2.5,3.6,6.3,2.7,9.5"/>
<path id="_x3C_Trazado_x3E__12_" class="st8" d="M200.3,296.1h-22.7c-0.6,0-1-0.4-1-1s0.4-1,1-1h22.7c0.6,0,1,0.4,1,1
	S200.9,296.1,200.3,296.1z"/>
<g>
	<line id="_x3C_Trazado_x3E__21_" class="st11" x1="37.4" y1="338.3" x2="686" y2="338.3"/>
	<path class="st8" d="M686,339H37.4c-0.4,0-0.8-0.3-0.8-0.8s0.3-0.8,0.8-0.8H686c0.4,0,0.8,0.3,0.8,0.8S686.4,339,686,339z"/>
	<g>
		<path id="Vector_2_" class="st9" d="M354,375.9H80.7v14.8c0,3.1,2.6,5.6,5.9,5.6h557.6c3.2,0,5.9-2.5,5.9-5.6v-13.3v-1.6H354"/>
		<path class="st8" d="M644.1,397.1H86.5c-3.6,0-6.6-2.9-6.6-6.4v-15.6h570.8v15.6C650.7,394.2,647.8,397.1,644.1,397.1z
			 M81.4,376.6v14.1c0,2.7,2.3,4.9,5.1,4.9h557.6c2.8,0,5.1-2.2,5.1-4.9v-14.1H81.4z"/>
	</g>
	<g>
		<path id="Vector_2_2_" class="st9" d="M648.5,375.9H82.2c-1.7,0-2.1-2.2-0.5-2.8l52.6-19.5h462l52.7,19.5
			C650.6,373.7,650.1,375.9,648.5,375.9"/>
		<path class="st8" d="M648.5,376.6H82.2c-1.1,0-2-0.8-2.2-1.8c-0.2-1.1,0.4-2.1,1.4-2.4l52.8-19.6l462.5,0l52.7,19.5
			c1,0.4,1.6,1.4,1.4,2.4C650.5,375.9,649.6,376.6,648.5,376.6z M134.4,354.3l-52.5,19.5c-0.5,0.2-0.5,0.6-0.5,0.7
			c0,0.3,0.3,0.6,0.7,0.6h566.3c0.5,0,0.7-0.3,0.7-0.6c0-0.1,0.1-0.6-0.5-0.7l-52.6-19.5H134.4z"/>
	</g>
	<g>
		<path id="Vector_4_2_" class="st9" d="M586.2,45.5H143.3c-6,0-10.9,4.9-10.9,10.9v296.9h464.7V56.4
			C597.1,50.4,592.2,45.5,586.2,45.5z"/>
		<path class="st8" d="M597.8,354.1H131.6V56.4c0-6.4,5.2-11.6,11.6-11.6h442.9c6.4,0,11.6,5.2,11.6,11.6V354.1z M133.1,352.6h463.2
			V56.4c0-5.6-4.5-10.1-10.1-10.1H143.3c-5.6,0-10.1,4.5-10.1,10.1V352.6z"/>
	</g>
	<path id="Vector_5_1_" class="st11" d="M568.7,69.5H162c-1.5,0-2.8,1.2-2.8,2.8v255.5c0,1.5,1.2,2.8,2.8,2.8h406.7
		c1.5,0,2.8-1.2,2.8-2.8V72.3C571.5,70.8,570.2,69.5,568.7,69.5z"/>
	<g>
		<line class="st9" x1="650" y1="374.4" x2="650" y2="378.9"/>
		<rect x="649.2" y="374.4" class="st8" width="1.5" height="4.6"/>
	</g>
	<path id="Vector_3_1_" class="st8" d="M154.5,363.9l26.9-10.4H541l26.9,10.4c2.2,0.8,1.6,4.1-0.8,4.1H155.3
		C152.9,368,152.3,364.7,154.5,363.9z"/>
	<g id="_x3C_Trazado_x3E__20_">
		<g>
			<g>
				<path class="st9" d="M147.2,368.4c-0.3,0-0.4-0.1-0.1-0.2l42.3-16.2c0.3-0.1,0.7-0.2,1-0.2s0.3,0.1,0,0.2l-42.1,16.2
					C148.1,368.3,147.6,368.4,147.2,368.4z"/>
				<path class="st9" d="M167.9,368.4c-0.3,0-0.4-0.1-0.2-0.2L206,352c0.3-0.1,0.7-0.2,1-0.2s0.3,0.1,0,0.2l-38,16.2
					C168.7,368.3,168.2,368.4,167.9,368.4z"/>
				<path class="st9" d="M188.6,368.4c-0.3,0-0.4-0.1-0.2-0.2l34.2-16.2c0.2-0.1,0.6-0.2,0.9-0.2s0.3,0.1,0.1,0.2l-33.9,16.2
					C189.4,368.3,188.9,368.4,188.6,368.4z"/>
				<path class="st9" d="M229.9,368.3c-0.3,0-0.5-0.1-0.3-0.2l26-16.2c0.2-0.1,0.5-0.2,0.8-0.2s0.4,0.1,0.2,0.2l-25.8,16.2
					C230.7,368.3,230.3,368.3,229.9,368.3z"/>
				<path class="st9" d="M271.3,368.3c-0.3,0-0.5-0.1-0.4-0.2l17.8-16.2c0.1-0.1,0.4-0.2,0.7-0.2s0.4,0.1,0.3,0.2l-17.6,16.2
					C272,368.2,271.6,368.3,271.3,368.3z"/>
				<path class="st9" d="M312.6,368.3c-0.3,0-0.6-0.1-0.5-0.2l9.7-16.1c0.1-0.1,0.3-0.2,0.6-0.2s0.4,0.1,0.4,0.2l-9.4,16.1
					C313.3,368.2,313,368.3,312.6,368.3z"/>
				<path class="st9" d="M354,368.3c-0.3,0-0.6-0.1-0.6-0.2l1.5-16.1c0-0.1,0.2-0.2,0.5-0.2s0.5,0.1,0.5,0.2l-1.3,16.1
					C354.6,368.2,354.3,368.3,354,368.3z"/>
				<path class="st9" d="M395.3,368.3c-0.3,0-0.7-0.1-0.7-0.2L388,352c0-0.1,0.1-0.2,0.4-0.2s0.5,0.1,0.6,0.2l6.9,16.1
					C395.9,368.2,395.7,368.3,395.3,368.3z"/>
				<path class="st9" d="M436.7,368.3c-0.3,0-0.7-0.1-0.8-0.2L421.1,352c-0.1-0.1,0-0.2,0.3-0.2s0.6,0.1,0.7,0.2l15,16.1
					C437.2,368.2,437,368.3,436.7,368.3z"/>
				<path class="st9" d="M478,368.3c-0.3,0-0.7-0.1-0.9-0.2L454.2,352c-0.2-0.1,0-0.2,0.2-0.2s0.6,0.1,0.8,0.2l23.2,16.1
					C478.5,368.2,478.4,368.3,478,368.3z"/>
				<path class="st9" d="M519.4,368.3c-0.3,0-0.8-0.1-1-0.2L487.3,352c-0.2-0.1-0.1-0.2,0.1-0.2s0.7,0.1,0.9,0.2l31.3,16.1
					C519.8,368.2,519.7,368.3,519.4,368.3z"/>
				<path class="st9" d="M560.7,368.3c-0.3,0-0.8-0.1-1.1-0.2L520.4,352c-0.3-0.1-0.2-0.2,0-0.2s0.7,0.1,1,0.2l39.5,16.1
					C561.2,368.2,561.1,368.3,560.7,368.3z"/>
				<path class="st9" d="M209.3,368.4c-0.3,0-0.5-0.1-0.3-0.2l30.1-16.2c0.2-0.1,0.6-0.2,0.9-0.2s0.3,0.1,0.1,0.2l-29.8,16.2
					C210,368.3,209.6,368.4,209.3,368.4z"/>
				<path class="st9" d="M250.6,368.3c-0.3,0-0.5-0.1-0.4-0.2l21.9-16.2c0.1-0.1,0.5-0.2,0.8-0.2s0.4,0.1,0.2,0.2l-21.7,16.2
					C251.3,368.3,251,368.3,250.6,368.3z"/>
				<path class="st9" d="M292,368.3c-0.3,0-0.6-0.1-0.5-0.2l13.8-16.2c0.1-0.1,0.4-0.2,0.7-0.2s0.4,0.1,0.3,0.2l-13.5,16.2
					C292.7,368.2,292.3,368.3,292,368.3z"/>
				<path class="st9" d="M333.3,368.3c-0.3,0-0.6-0.1-0.6-0.2l5.6-16.1c0-0.1,0.3-0.2,0.6-0.2s0.5,0.1,0.4,0.2l-5.4,16.1
					C334,368.2,333.7,368.3,333.3,368.3z"/>
				<path class="st9" d="M374.7,368.3c-0.3,0-0.6-0.1-0.7-0.2l-2.5-16.1c0-0.1,0.2-0.2,0.5-0.2s0.5,0.1,0.5,0.2l2.8,16.1
					C375.3,368.2,375,368.3,374.7,368.3z"/>
				<path class="st9" d="M416,368.3c-0.3,0-0.7-0.1-0.8-0.2L404.6,352c-0.1-0.1,0.1-0.2,0.4-0.2s0.6,0.1,0.6,0.2l10.9,16.1
					C416.6,368.2,416.4,368.3,416,368.3z"/>
				<path class="st9" d="M457.4,368.3c-0.3,0-0.7-0.1-0.9-0.2L437.7,352c-0.1-0.1,0-0.2,0.3-0.2s0.6,0.1,0.7,0.2l19.1,16.1
					C457.9,368.2,457.7,368.3,457.4,368.3z"/>
				<path class="st9" d="M498.7,368.3c-0.3,0-0.8-0.1-0.9-0.2l-27-16.1c-0.2-0.1-0.1-0.2,0.2-0.2s0.6,0.1,0.8,0.2l27.2,16.1
					C499.2,368.2,499.1,368.3,498.7,368.3z"/>
				<path class="st9" d="M540.1,368.3c-0.3,0-0.8-0.1-1-0.2L503.9,352c-0.2-0.1-0.2-0.2,0.1-0.2s0.7,0.1,0.9,0.2l35.4,16.1
					C540.5,368.2,540.4,368.3,540.1,368.3z"/>
				<path class="st9" d="M545.6,355.7l-382.7,0c-0.3,0-0.3-0.1,0-0.2s0.8-0.2,1.1-0.2l380.6,0c0.3,0,0.8,0.1,1,0.2
					S545.9,355.7,545.6,355.7z"/>
				<path class="st9" d="M561.6,361.6l-415.9,0.1c-0.3,0-0.3-0.1,0-0.2c0.3-0.1,0.8-0.2,1.1-0.2l413.7-0.1c0.3,0,0.8,0.1,1.1,0.2
					C561.9,361.5,561.9,361.6,561.6,361.6z"/>
			</g>
		</g>
	</g>
	<path id="Vector_57_3_" class="st11" d="M499.5,441.5c1.6-0.6,34-27.9,33.9-32c0.4-6.4-1.6-7.8-7.9-15.9L502.4,412l3.4,4.1
		c0,0-8.7,17.1-9.2,19.2C496.2,437.6,497.9,442.1,499.5,441.5z"/>
	<path id="Vector_58_3_" class="st12" d="M499.5,441.5c1.5-0.6,26.3-18.5,34.3-29.9c1-1.5,1.5-3.3,1-5c-0.6-2.3-2.6-4.2-6-8.7
		l-23,18.4c0,0-8.7,17.1-9.2,19.2c-0.2,0.8-0.1,2,0.3,3C497.5,440.2,498.5,441.8,499.5,441.5z"/>
	<path id="Vector_61_12_" class="st13" d="M504,419.8c2.3-2,5.8-3.4,8.8-2.6"/>
	<path id="Vector_61_11_" class="st13" d="M502.6,422.6c2.3-2,5.8-3.4,8.8-2.6"/>
	<path id="Vector_61_10_" class="st13" d="M501.4,425.4c2.3-2,5.8-3.4,8.8-2.6"/>
	<path id="Vector_66_3_" class="st13" d="M502.7,416.9c1.8,0.4,3.6,0,5.4,0c0.2,0,0.2-0.2,0.2-0.3c0,0,0,0,0-0.1
		c-1.2-1.3-3-2.4-4.8-2.9c-1.1-0.3-2.6-0.1-2.9,1.2C500.4,415.9,501.7,416.6,502.7,416.9z"/>
	<path id="Vector_67_3_" class="st13" d="M513.2,410.8c-1-0.9-2.4-0.2-3,0.6c-1.2,1.4-2,3.3-2.3,5.1c0,0,0,0,0,0
		c0,0.1,0.2,0.3,0.3,0.2c1.5-0.9,3.3-1.7,4.5-3C513.5,413,514.1,411.7,513.2,410.8z"/>
	<path class="st2" d="M497.6,440.1c0.5,1,1.3,1.7,1.9,1.4c1.5-0.6,26.3-18.5,34.3-29.9c1-1.5,1.5-3.3,1-5c-0.1-0.5-0.3-1-0.6-1.4
		L497.6,440.1z"/>
	<path id="Vector_25_1_" class="st14" d="M514,348.4c-0.3,0.1-5.1,2.4-8,3.2c-2.1,0.6-8.5,2.1-9.4-0.3c-0.6-1.6,3-2.9,5.6-3.9
		c1.3-0.5,3-1.9,2.6-2.8c-0.7-1.5-4.1-0.1-6.4,1.1c-4.4,2.4-9.4,6.3-12,4.1c-1-0.9-0.7-1.9,1.1-3.3c-2.8,1.7-5.8,3-6.9,2.1
		c-0.7-0.5-0.7-1.2-0.3-1.9c-0.9,0.3-1.6,0.2-2.1-0.4c-0.9-0.9-0.4-2.4,0.6-3.8c-0.3-0.1-0.6-0.2-0.8-0.5c-1.8-3,7.9-11,11.1-11.8
		c9.7-2.1,19.9-1.4,19.9-1.4C512.9,332.1,514,348.4,514,348.4z"/>
	<path id="Vector_26_1_" class="st1" d="M500.1,339.1c-2.3,0.3-7.9,3.8-9.8,5.1c-2.5,1.5-6.9,5.7-0.5,6.3"/>
	<path id="Vector_27_2_" class="st1" d="M498.3,335C498.4,335,498.4,334.9,498.3,335c-2.6,0.6-5.2,1.3-7.6,2.4
		c-2.6,1.3-6.1,4.3-8.1,6.3c-1.2,1.2-4.9,4.4-0.3,5.1"/>
	<path id="Vector_28_2_" class="st1" d="M495.7,331.3c-2.5,0.5-4.6,0.8-6.9,2.1c-3,1.7-5.8,4.6-6.8,5.6c-1.1,1.1-5.4,5.3-3.9,7.3"/>
	<path id="Vector_57_2_" class="st11" d="M413.8,398.4c0.6,1.7,29.9,35.6,33.8,37.9c6.1,0.2,8.9-3.3,17.6-10l-19.9-24.9l-4.3,4.6
		c0,0-18.4-10.2-20.7-10.8C418,394.8,413.2,396.7,413.8,398.4z"/>
	<path id="Vector_58_2_" class="st12" d="M413.8,398.4c0.6,1.6,19.8,28.2,32.1,36.8c1.6,1.1,3.5,1.6,5.4,1.1
		c2.5-0.7,4.5-2.8,9.3-6.5L441,405.2c0,0-18.3-9.3-20.6-9.8c-0.9-0.2-2.1-0.1-3.2,0.3C415.2,396.2,413.5,397.3,413.8,398.4z"/>
	<path id="Vector_66_2_" class="st10" d="M440.2,401.8c-0.5,1.9-0.1,3.9,0.1,5.8c0,0.2,0.2,0.3,0.4,0.2c0,0.1,0.1,0.1,0.1,0
		c1.4-1.3,2.6-3.3,3.2-5.1c0.3-1.2,0.2-2.8-1.3-3.1C441.3,399.4,440.5,400.7,440.2,401.8z"/>
	<path id="Vector_67_2_" class="st10" d="M446.8,413.1c1-1.1,0.2-2.5-0.7-3.3c-1.5-1.3-3.6-2.2-5.5-2.5c-0.1,0-0.1,0.1-0.1,0.1
		c-0.2,0.1-0.3,0.2-0.2,0.4c0.9,1.6,1.8,3.5,3.2,4.8C444.4,413.4,445.8,414.1,446.8,413.1z"/>
	<path class="st2" d="M415.4,396.4c-1.1,0.6-1.8,1.3-1.5,2.1c0.6,1.6,19.8,28.2,32.1,36.8c1.6,1.1,3.5,1.6,5.4,1.1
		c0.5-0.1,1-0.3,1.5-0.6L415.4,396.4z"/>
	<path id="Vector_56_1_" class="st15" d="M464.2,425.6c10.2-7.5,20.8-15.7,20.8-15.7l-19.8-26l-20.3,16.4"/>
	<path id="Vector_56_3_" class="st15" d="M464.4,425.8c10.1-7.6,20.8-15.8,20.8-15.8L465.2,384L445,400.6"/>
	<g>
		<g id="_x3C_Trazado_x3E__19_">
			<path id="Vector_56_4_" class="st15" d="M525.5,393.6c-7.2-9.3-15.1-19.1-15.1-19.1l-23.8,19l15.7,18.6"/>
			<path id="Vector_23_1_" class="st7" d="M461,355c1.6,12.4,32.2,48.2,35.8,52.3c0.5,0.6,0.8,0.9,0.8,0.9l25.3-19.5l-0.3-0.4
				l-22.3-29.2l66.5,6.7l-17.2-19.4c0,0-2,1.2-6.3,0.6c-14.6-2.1-55.8-14.2-63.6-13.8C469.7,333.7,459.5,343.7,461,355z"/>
		</g>
		<path id="Vector_24_1_" class="st14" d="M551.8,309.3c-3.4,13.2-10,28.9-12.8,31.4c-3.5,3.2-26.1,8.6-27.2,8.7
			c-2.8,0.2-7.9-19.9-4.9-20.3c4.5-0.5,20.9-1,21.9-2c1.1-1,8.2-9.6,15.5-19.3C549.4,301.2,553.9,301.1,551.8,309.3z"/>
		<path id="Brazo_derecho_x5F_2_1_" class="st2" d="M510.3,327.3l7.6,21.9c0.3,1,1.3,1.5,2.3,1.3c6.1-1.2,26.4-5.3,30.8-9.9
			c5.2-5.4,15.3-33.5,18.4-47.2c3.1-13.7-3.9-13.5-10.5-5c-6.6,8.5-23,29.1-23.9,29.6c-0.7,0.3-17.4,5-23.3,6.6
			C510.5,325,509.9,326.2,510.3,327.3z"/>
		<g id="_x3C_Trazado_x3E__17_">
			<path id="Vector_29_1_" class="st16" d="M529,356.1h-61.4c-1.4,0-2.5-1-2.7-2.4l-4.8-40c-0.2-1.6,1.1-3,2.7-3h61.3
				c1.4,0,2.5,1,2.7,2.4l4.9,40C531.9,354.6,530.6,356.1,529,356.1z"/>
			<path id="Vector_30_1_" class="st11" d="M500,333.4c0,2.2-1.8,4.1-4,4.1s-4.1-1.8-4.1-4.1c0-2.2,1.8-4.1,4-4.1
				C498.1,329.3,499.9,331.2,500,333.4z"/>
		</g>
		<path id="Vector_31_1_" class="st17" d="M601.6,357c-0.2,0.2-59.5-12.8-60-13.5c-0.8-1,9.8-45.6,21-58.9
			c2.8-3.3,11.7-3.1,15.7,0.3C598,301.5,602.1,356.4,601.6,357z"/>
		<path id="Vector_32_1_" class="st15" d="M565.3,294.8c2.7,0,8.1-5.4,10-9.8c0.1-0.3-0.6-3.3-1.2-7c-0.4-2.2-0.8-4.7-1-7l-14.2,4.7
			c0,0,1.8,4.7,2.1,8.7c0,0.3,0,0.7,0,1c0,0,0,0.1,0,0.2C560.9,287.4,561.1,294.9,565.3,294.8z"/>
		<path class="st1" d="M573.2,272.2c0,0,0.1,8.5,2,11.7"/>
		<path class="st1" d="M560.3,279.6c0,0,1.1,5.2,0.7,7.1"/>
		<path id="_x3C_Trazado_x3E__15_" class="st2" d="M621.4,347c5.1-16.1-23.6-47.5-35.3-57c-13.5-11-14.2-6.4-9.8,4.6
			c4.6,11.5,12.5,28,12.5,28S618.7,355.8,621.4,347z"/>
		<path id="Vector_34_1_" class="st14" d="M557.5,317.8c-6.6-1.4-8.5-0.7-13.6-4.8c-3.3-2.7-6.4-1.8-4.7,2.3
			c2.8,6.6,11,10.3,14.2,10.6L557.5,317.8z"/>
		<path id="Vector_35_1_" class="st14" d="M574.8,325.3c0,0-7.2-4.7-14.2-6.8c-4.8-1.5-15.6-3.5-26.7,6.5c-2.6,2.4-4.7,7.7,1,5.3
			c4.1-1.7,6.2-4,8.7-4.5c0,0-1.8,7,0.7,9.6c1.1,1.1,4.2,4.2,7,6.2c0,0,0.6-0.5,1.3-1.2c0,0,2.6,2.2,7.6,2L574.8,325.3z"/>
		<path id="Vector_36_1_" class="st14" d="M555.8,317.8c-2.4,1.1-7.5,3.4-10.9,6.7c-3.9,3.7-10.2,11.9-7.5,14.8
			c2.1,2.1,4.8-0.8,4.8-0.8s-2,4,0.3,5.4c2.1,1.3,4.1-1.1,4.1-1.1s-0.8,2.6,1.4,3.5c2.7,1.1,3.8-4.6,7.5-5.8
			C556.3,340.3,555.8,317.8,555.8,317.8z"/>
		<path id="Vector_38_8_" class="st1" d="M542.9,344.1c-2.9-1.1-0.6-5.7-0.6-5.7c2.5-5.2,5.3-9.2,6.7-10.9c0,0,0-0.1,0,0"/>
		<path id="Vector_38_7_" class="st1" d="M548.2,346.1c-2.9-1.1-0.6-5.7-0.6-5.7c2.5-5.2,5.3-9.2,6.7-10.9c0,0,0-0.1,0,0"/>
		<path id="Vector_38_6_" class="st1" d="M537.8,339.3c-2.8-1.3-0.1-5.7-0.1-5.7c2.9-4.9,6.2-8.6,7.7-10.2c0,0,0-0.1,0,0"/>
		<path id="Vector_38_4_" class="st1" d="M532,330.3c-1.8-2.6,3.5-6.5,3.5-6.5c7.8-7.3,19.4-9.7,34.9-1"/>
		<path id="Vector_41_1_" class="st2" d="M570.6,321l-9.4,25.3c-0.7,1.9,0.6,4,2.6,4.2c13.1,1.5,54.3,5.7,57.7-2.9
			c4.8-16.5-32-24.6-32-24.6l-15.1-4C572.8,318.7,571.2,319.5,570.6,321z"/>
		<path id="Vector_68_1_" class="st8" d="M448.1,398l17.5,25.3c0.8,1.1,2.3,1.4,3.4,0.7l77.8-51c0,0,11.7-17.6,6.3-32.1
			c-5.1-13.8-12.7-8-12.7-8c-7.9,4.2-79.6,53.2-91.7,61.6C447.6,395.3,447.3,396.9,448.1,398z"/>
		<path id="_x3C_Trazado_x3E__13_" class="st8" d="M599.5,351.4l-7.6-3.3c0,0-32.3-24.5-45.6-18.9c-2.6,0.8-6.4,3.6-6.4,3.6
			c16.1-2.6,11.6,32.3,6.8,39.9c0,0,4,1.2,5.4,2c4.1,2.3,10.1,5.2,15.4,5.9c8.9,1.3,23.8,1.2,31.3-8.8c4.4-5.9,4.1-13.1,3.5-16.9
			C602,353.4,600.9,352.1,599.5,351.4z"/>
		<path class="st15" d="M574.1,262.3l-0.5-1.9l-7.9-5.6l-1.4,2.9c-2.9-5.3-7.5-9.4-11.1-9.4c-5.5,0-6.3,10-6.3,18.6
			c0,8.5,3.6,15.5,10,15.5c3.3,0,6.3-2.5,8.1-6.3c1.2-2.3,8.5-3.8,8.5-3.8l-0.1-0.1c1.1,0.3,3.6,0,3.6-4.6
			C577.1,260.5,574.1,262.3,574.1,262.3z"/>
		<path class="st1" d="M547.6,256.8c0,0-1.8,13.7,0.8,19.3c2.2,4.7,5.2,6.5,7.9,6.5s5.7-1.2,7.6-4.3"/>
		<path class="st1" d="M553.2,266.7c0,0-2.5,2.1-3.3,2.1c-0.8,0.1,1.5,3.5,2.5,3.3"/>
		<path class="st1" d="M554.9,277.4c0,0,0.6,0.3,1.8,0s1.8-1,1.8-1"/>
		<path class="st1" d="M546,257.9c0,0,1.6-1,3-0.7s3.7,2.2,3.7,2.2"/>
		<path class="st1" d="M556,260.1c0,0,2.5-1,4-0.1c1.4,0.8,2.6,2.1,2.6,2.1"/>
		<line class="st18" x1="549.4" y1="261.6" x2="549.4" y2="263.1"/>
		<line class="st18" x1="558.1" y1="263.3" x2="558.1" y2="264.9"/>
		<path class="st19" d="M545.6,254.7c6.6,4.4,11.5,4.7,17.8,2.3c0,0,2.7,6.5,10.7,4.8c8-1.7,12.4-19.8-5.8-21.4c0,0-1.2-2.2-4.4-2.3
			c-3.2-0.1-4.1,1.5-4.1,1.5s-4.2-2.7-9.6-0.8C541.8,241.8,540,250.9,545.6,254.7z"/>
		<path class="st1" d="M574.4,262.5c0,0,3-1.8,3,5.1c0,6.9-5.4,4.2-3.9,4.2"/>
		<path class="st20" d="M573.8,272.4"/>
		<path class="st1" d="M574.7,265.3c0,0,1.3,0.7,1.2,2.1c-0.2,1.4-0.7,1.8-1.2,2"/>
		<path class="st19" d="M574,262.6l-9.1,1.2c-0.3-2.7-2.6-4.9-5.4-4.9c-2.4,0-4.4,1.6-5.1,3.7h-0.6c-0.3-2.8-2.6-5-5.4-5
			c-3,0-5.4,2.5-5.4,5.5s2.4,5.5,5.4,5.5c2.8,0,5.1-2.2,5.4-5h0.4c0,0.2,0,0.4,0,0.6c0,3,2.4,5.5,5.4,5.5c2.8,0,5.1-2.2,5.4-5
			l9.2-1.2c0.3,0,0.5-0.3,0.5-0.6C574.6,262.8,574.3,262.6,574,262.6z M548.4,267.6c-2.4,0-4.3-2-4.3-4.4s1.9-4.4,4.3-4.4
			c2.4,0,4.3,2,4.3,4.4S550.8,267.6,548.4,267.6z M559.5,268.9c-2.4,0-4.3-2-4.3-4.4c0-2.4,1.9-4.4,4.3-4.4s4.3,2,4.3,4.4
			C563.8,266.9,561.9,268.9,559.5,268.9z"/>
	</g>
	<path id="_x3C_Trazado_x3E__11_" class="st2" d="M463,272h-34.5c-0.6,0-1-0.4-1-1s0.4-1,1-1H463c0.6,0,1,0.4,1,1S463.6,272,463,272
		z"/>
</g>
<g>
	<path id="_x3C_Trazado_x3E__9_" class="st2" d="M410.7,272h-49c-0.6,0-1-0.4-1-1s0.4-1,1-1h49c0.6,0,1,0.4,1,1S411.2,272,410.7,272
		z"/>
	<path id="_x3C_Trazado_x3E__10_" class="st2" d="M350,272H177.6c-0.6,0-1-0.4-1-1s0.4-1,1-1H350c0.6,0,1,0.4,1,1S350.5,272,350,272
		z"/>
	<path id="_x3C_Trazado_x3E__8_" class="st2" d="M294.1,247.9H177.6c-0.6,0-1-0.4-1-1s0.4-1,1-1h116.5c0.6,0,1,0.4,1,1
		S294.7,247.9,294.1,247.9z"/>
	<path id="_x3C_Trazado_x3E__7_" class="st19" d="M374.2,223.8h-26.1c-0.6,0-1-0.4-1-1s0.4-1,1-1h26.1c0.6,0,1,0.4,1,1
		S374.7,223.8,374.2,223.8z"/>
	<path id="_x3C_Trazado_x3E__6_" class="st19" d="M332,223.8H177.6c-0.6,0-1-0.4-1-1s0.4-1,1-1H332c0.6,0,1,0.4,1,1
		S332.6,223.8,332,223.8z"/>
	<path id="_x3C_Trazado_x3E__5_" class="st8" d="M346.9,200.4H177.7c-0.6,0-1-0.4-1-1s0.4-1,1-1h169.2c0.6,0,1,0.4,1,1
		S347.4,200.4,346.9,200.4z"/>
	<path id="_x3C_Trazado_x3E__4_" class="st8" d="M200.4,176.3h-22.7c-0.6,0-1-0.4-1-1s0.4-1,1-1h22.7c0.6,0,1,0.4,1,1
		S200.9,176.3,200.4,176.3z"/>
	<path id="_x3C_Trazado_x3E__3_" class="st2" d="M350.1,152.2H177.7c-0.6,0-1-0.4-1-1s0.4-1,1-1h172.4c0.6,0,1,0.4,1,1
		S350.6,152.2,350.1,152.2z"/>
	<path id="_x3C_Trazado_x3E__2_" class="st2" d="M294.2,128.1H177.7c-0.6,0-1-0.4-1-1s0.4-1,1-1h116.5c0.6,0,1,0.4,1,1
		S294.7,128.1,294.2,128.1z"/>
	<path id="_x3C_Trazado_x3E__1_" class="st19" d="M374.2,104.1h-26.1c-0.6,0-1-0.4-1-1s0.4-1,1-1h26.1c0.6,0,1,0.4,1,1
		S374.8,104.1,374.2,104.1z"/>
	<path id="_x3C_Trazado_x3E_" class="st19" d="M332.1,104.1H177.7c-0.6,0-1-0.4-1-1s0.4-1,1-1h154.4c0.6,0,1,0.4,1,1
		S332.6,104.1,332.1,104.1z"/>
</g>
<path id="Vector_6_1_" class="st8" d="M570,69.5H160.7c-0.8,0-1.5,0.7-1.5,1.5v8.5h412.2V71C571.5,70.2,570.8,69.5,570,69.5z"/>
<path id="Vector_7_1_" class="st14" d="M167.5,74.5c0,1.4-1.1,2.5-2.5,2.5c-1.4,0-2.5-1.1-2.5-2.5c0-1.4,1.1-2.5,2.5-2.5
	C166.4,72,167.5,73.1,167.5,74.5z"/>
<path id="Vector_8_1_" class="st9" d="M177.6,74.5c0,1.4-1.1,2.5-2.5,2.5s-2.5-1.1-2.5-2.5c0-1.4,1.1-2.5,2.5-2.5
	S177.6,73.1,177.6,74.5z"/>
<path id="Vector_9_1_" class="st2" d="M187.8,74.5c0,1.4-1.1,2.5-2.5,2.5s-2.5-1.1-2.5-2.5c0-1.4,1.1-2.5,2.5-2.5
	S187.8,73.1,187.8,74.5z"/>
</svg>
