<?xml version="1.0" encoding="utf-8"?>
<!-- Generator: Adobe Illustrator 25.2.1, SVG Export Plug-In . SVG Version: 6.00 Build 0)  -->
<svg version="1.1" id="we" xmlns="http://www.w3.org/2000/svg" xmlns:xlink="http://www.w3.org/1999/xlink" x="0px"
	 y="0px" viewBox="0 0 870 686" xml:space="preserve">
  <style type="text/css">
  <!-- Design given us this originally -->
    .st0{fill:#FFFFFF;}
    .st1{fill:#95E5D8;}
  </style>
  <path id="G_pleno" class="st0" d="M764.8,334.8c1,0.9,1.5,2.2,1.5,3.7v17.2c0,2.3-0.2,4.2-0.6,5.5c-0.4,1.3-1,2.3-2,3.1
    c-0.9,0.8-2.3,1.4-4.2,1.9c-2.3,0.7-4.9,1.3-7.9,1.7c-3,0.4-5.8,0.6-8.4,0.6c-6.6,0-12.3-1.3-17.1-3.8s-8.5-6.2-11.1-11
    c-2.6-4.8-3.9-10.5-3.9-17c0-6.5,1.3-12.1,3.8-16.9c2.6-4.8,6.2-8.5,11-11c4.8-2.6,10.3-3.9,16.6-3.9c8.2,0,14.9,2.1,20.2,6.3
    c0.9,0.7,1.5,1.4,1.8,2.1s0.5,1.6,0.5,2.6c0,1.5-0.4,2.8-1.3,3.9c-0.9,1.1-1.9,1.6-3,1.6c-0.8,0-1.5-0.1-2.1-0.4
    c-0.6-0.2-1.4-0.6-2.2-1.1c-2.5-1.5-4.7-2.6-6.8-3.3c-2.1-0.6-4.3-1-6.8-1c-12,0-18,7-18,20.9c0,7.2,1.6,12.5,4.7,16
    c3.1,3.5,7.8,5.3,14.1,5.3c3.4,0,6.8-0.4,10.1-1.3v-13.6h-8.1c-1.7,0-3-0.4-4-1.2c-0.9-0.8-1.4-2-1.4-3.5c0-1.5,0.5-2.7,1.4-3.5
    c0.9-0.8,2.3-1.2,4-1.2h15C762.5,333.4,763.8,333.8,764.8,334.8z"/>
  <path id="N_pleno" class="st0" d="M698.8,307c1.2,1.3,1.8,2.9,1.8,4.9v49.4c0,2.1-0.6,3.7-1.8,5c-1.2,1.3-2.8,1.9-4.7,1.9
    c-2.1,0-3.8-0.8-5.1-2.3l-29.5-37.8v33.2c0,2.1-0.6,3.7-1.7,5c-1.1,1.3-2.7,1.9-4.6,1.9c-1.9,0-3.5-0.6-4.7-1.9
    c-1.2-1.3-1.8-2.9-1.8-5v-49.4c0-2,0.6-3.6,1.8-4.9c1.2-1.3,2.8-1.9,4.7-1.9c2.2,0,3.8,0.8,5,2.3l29.5,37.5v-33c0-2,0.6-3.6,1.8-4.9
    c1.2-1.3,2.7-1.9,4.6-1.9C696,305.1,697.6,305.8,698.8,307z"/>
  <path id="I_pleno" class="st0" d="M622.6,366.3c-1.2-1.2-1.8-2.9-1.8-5v-49.4c0-2.1,0.6-3.7,1.8-4.9c1.2-1.2,2.9-1.8,5-1.8
    c2.1,0,3.8,0.6,5,1.8c1.2,1.2,1.8,2.9,1.8,4.9v49.4c0,2.1-0.6,3.8-1.8,5c-1.2,1.2-2.9,1.8-5,1.8
    C625.5,368.2,623.8,367.5,622.6,366.3z"/>
  <path id="D_pleno" class="st0" d="M555.2,366c-1.1-1.1-1.7-2.7-1.7-4.8V312c0-2.1,0.6-3.6,1.7-4.8c1.1-1.1,2.7-1.7,4.8-1.7h17.7
    c6.7,0,12.6,1.2,17.4,3.7c4.9,2.5,8.6,6,11.2,10.6c2.6,4.6,3.9,10.2,3.9,16.6c0,6.5-1.3,12-3.8,16.7c-2.6,4.7-6.3,8.2-11.1,10.7
    c-4.9,2.5-10.7,3.7-17.5,3.7H560C557.9,367.6,556.4,367.1,555.2,366z M576.7,356.5c13.2,0,19.8-6.7,19.8-20
    c0-13.3-6.6-19.9-19.8-19.9h-9.4v39.9H576.7z"/>
  <path id="O_pleno" class="st0" d="M496.8,364.5c-4.5-2.6-8.1-6.3-10.5-11.1c-2.5-4.8-3.7-10.4-3.7-16.9c0-6.5,1.2-12.1,3.7-16.9
    c2.5-4.8,6-8.5,10.5-11c4.5-2.6,9.9-3.9,16.1-3.9s11.5,1.3,16.1,3.9c4.5,2.6,8.1,6.3,10.5,11c2.5,4.8,3.7,10.4,3.7,16.9
    c0,6.5-1.2,12.1-3.7,16.9c-2.5,4.8-6,8.5-10.5,11.1c-4.5,2.6-9.9,3.9-16.1,3.9S501.3,367.1,496.8,364.5z M525,352.3
    c3-3.6,4.4-8.9,4.4-15.8c0-6.9-1.5-12.1-4.4-15.7c-2.9-3.6-7-5.4-12.2-5.4c-5.2,0-9.3,1.8-12.2,5.4c-2.9,3.6-4.4,8.8-4.4,15.7
    c0,6.9,1.5,12.1,4.4,15.8s7,5.5,12.1,5.5C518,357.8,522.1,356,525,352.3z"/>
  <path id="C_pleno" class="st0" d="M438.5,364.5c-4.6-2.6-8.1-6.3-10.6-11.1c-2.5-4.8-3.7-10.4-3.7-16.9c0-6.5,1.2-12.1,3.7-16.9
    c2.5-4.8,6-8.5,10.6-11c4.6-2.6,9.9-3.9,16-3.9c7.7,0,14.3,2.1,19.9,6.3c0.9,0.7,1.5,1.4,1.8,2.1c0.4,0.7,0.5,1.6,0.5,2.6
    c0,1.5-0.4,2.8-1.3,3.9c-0.9,1.1-1.9,1.6-3.1,1.6c-0.8,0-1.5-0.1-2.2-0.3c-0.6-0.2-1.3-0.6-2.1-1.1c-2.3-1.5-4.5-2.6-6.5-3.3
    c-2-0.7-4.1-1-6.4-1c-5.6,0-9.9,1.7-12.7,5.2c-2.8,3.5-4.3,8.7-4.3,15.6c0,14,5.7,20.9,17,20.9c2.2,0,4.2-0.3,6.2-1
    c1.9-0.7,4.2-1.8,6.8-3.3c0.9-0.5,1.6-0.9,2.2-1.1c0.6-0.2,1.3-0.3,2-0.3c1.2,0,2.3,0.5,3.1,1.6c0.8,1.1,1.3,2.4,1.3,3.9
    c0,1.1-0.2,2-0.6,2.7c-0.4,0.7-1,1.4-1.8,2.1c-5.6,4.2-12.2,6.3-19.9,6.3C448.4,368.4,443,367.1,438.5,364.5z"/>
  <path id="CORAZON_pleno" class="st1" d="M365.4,302.5c-17.9-3-27.6,13.6-27.6,13.6l0,0.2c-0.2-0.5-6.5-13.7-24.3-13.7
    c-18.1,0-26.8,22.2-19.5,39c10.5,24.2,41.6,41,41.6,41s30.6-13.2,44.9-35.4C390.5,331.7,383.3,305.5,365.4,302.5z"/>
  <path id="E_pleno" class="st0" d="M211.9,366c-1.1-1.1-1.7-2.7-1.7-4.8V312c0-2.1,0.6-3.6,1.7-4.8c1.1-1.1,2.7-1.7,4.8-1.7h31.2
    c4.3,0,6.5,1.8,6.5,5.3c0,3.6-2.2,5.4-6.5,5.4h-24.2v14.5H246c4.3,0,6.5,1.8,6.5,5.4c0,3.5-2.2,5.3-6.5,5.3h-22.4V357h24.2
    c4.3,0,6.5,1.8,6.5,5.4c0,3.5-2.2,5.3-6.5,5.3h-31.2C214.6,367.6,213,367.1,211.9,366z"/>
  <path id="W_pleno" class="st0" d="M191.4,306.1c1.1-0.7,2.3-1.1,3.7-1.1c1.7,0,3.2,0.5,4.4,1.6c1.2,1.1,1.8,2.5,1.8,4.3
    c0,0.9-0.2,1.8-0.5,2.9l-18.3,50.1c-0.5,1.4-1.5,2.5-2.8,3.3c-1.3,0.8-2.8,1.2-4.4,1.2c-1.6,0-3-0.4-4.3-1.2
    c-1.3-0.8-2.2-1.9-2.7-3.3l-13.1-37l-13.5,37c-0.5,1.4-1.4,2.5-2.7,3.3c-1.3,0.8-2.7,1.2-4.3,1.2c-1.5,0-2.9-0.4-4.3-1.2
    c-1.3-0.8-2.2-1.9-2.8-3.3l-18.3-50.1c-0.4-1-0.5-1.9-0.5-2.8c0-1.8,0.6-3.3,1.9-4.4c1.3-1.1,2.8-1.6,4.6-1.6c1.4,0,2.7,0.4,3.8,1.1
    c1.1,0.7,2,1.8,2.5,3.2l13.6,39l14.1-38.8c0.5-1.4,1.4-2.5,2.5-3.3c1.1-0.8,2.4-1.1,3.7-1.1c1.3,0,2.6,0.4,3.7,1.1
    c1.1,0.8,1.9,1.9,2.5,3.3L175,349l14-39.7C189.5,307.9,190.3,306.8,191.4,306.1z"/>
    <!-- Unnecessary outlines -->
  <path id="G_contorno_1_" class="st0" d="M742.6,306.8c7.7,0,14,2,19,5.9c0.8,0.6,1.2,1.1,1.3,1.4c0.2,0.4,0.3,1,0.3,1.7
    c0,1.1-0.3,2-0.8,2.7c-0.6,0.8-1.1,0.9-1.5,0.9c-0.5,0-1-0.1-1.4-0.2c-0.5-0.2-1.1-0.5-1.9-1c-2.6-1.6-5-2.8-7.2-3.5
    c-2.2-0.7-4.7-1.1-7.4-1.1c-16.5,0-20,12.4-20,22.9c0,7.6,1.7,13.5,5.2,17.3c3.5,4,8.7,6,15.6,6c3.6,0,7.1-0.5,10.6-1.4
    c0.9-0.2,1.5-1,1.5-1.9v-13.6c0-1.1-0.9-2-2-2h-8.1c-1.2,0-2.1-0.2-2.6-0.7c-0.3-0.3-0.7-0.8-0.7-2c0-1.2,0.4-1.7,0.7-2
    c0.6-0.5,1.4-0.7,2.6-0.7h15c1.1,0,2,0.3,2.5,0.8c0.4,0.3,0.8,0.9,0.8,2.3v17.2c0,2.1-0.2,3.8-0.5,4.9c-0.3,0.9-0.7,1.6-1.3,2.1
    c-0.5,0.4-1.5,1-3.5,1.6c-2.2,0.7-4.7,1.2-7.6,1.6c-2.9,0.4-5.6,0.6-8.1,0.6c-6.2,0-11.6-1.2-16.1-3.6c-4.4-2.4-7.9-5.8-10.3-10.2
    c-2.4-4.5-3.6-9.9-3.6-16.1c0-6.1,1.2-11.4,3.6-15.9c2.4-4.4,5.8-7.8,10.1-10.2C731.4,308,736.6,306.8,742.6,306.8 M742.6,304.8
    c-6.3,0-11.9,1.3-16.6,3.9c-4.8,2.6-8.4,6.3-11,11c-2.6,4.8-3.8,10.4-3.8,16.9c0,6.6,1.3,12.2,3.9,17c2.6,4.8,6.3,8.4,11.1,11
    s10.5,3.8,17.1,3.8c2.6,0,5.4-0.2,8.4-0.6c3-0.4,5.6-1,7.9-1.7c1.9-0.5,3.3-1.2,4.2-1.9c0.9-0.8,1.6-1.8,2-3.1
    c0.4-1.3,0.6-3.1,0.6-5.5v-17.2c0-1.6-0.5-2.8-1.5-3.7c-1-0.9-2.3-1.4-3.9-1.4h-15c-1.7,0-3,0.4-4,1.2c-0.9,0.8-1.4,2-1.4,3.5
    c0,1.5,0.5,2.7,1.4,3.5c0.9,0.8,2.3,1.2,4,1.2h8.1v13.6c-3.3,0.9-6.7,1.3-10.1,1.3c-6.3,0-11-1.8-14.1-5.3c-3.1-3.5-4.7-8.9-4.7-16
    c0-13.9,6-20.9,18-20.9c2.5,0,4.7,0.3,6.8,1c2.1,0.6,4.3,1.7,6.8,3.3c0.9,0.5,1.6,0.9,2.2,1.1c0.6,0.2,1.3,0.4,2.1,0.4
    c1.2,0,2.2-0.5,3-1.6c0.8-1.1,1.3-2.4,1.3-3.9c0-1.1-0.2-1.9-0.5-2.6s-1-1.4-1.8-2.1C757.5,306.9,750.7,304.8,742.6,304.8
    L742.6,304.8z"/>
  <path id="N_contorno_1_" class="st0" d="M694.1,307.1c1.4,0,2.4,0.4,3.3,1.3c0.8,0.9,1.3,2,1.3,3.5v49.4c0,1.5-0.4,2.7-1.3,3.6
    c-0.8,0.9-1.9,1.3-3.3,1.3c-1.5,0-2.6-0.5-3.6-1.6l-29.5-37.7c-0.4-0.5-1-0.8-1.6-0.8c-0.2,0-0.4,0-0.7,0.1c-0.8,0.3-1.3,1-1.3,1.9
    v33.2c0,1.6-0.4,2.7-1.2,3.6c-0.8,0.8-1.8,1.2-3.1,1.2c-1.4,0-2.4-0.4-3.2-1.3c-0.8-0.9-1.2-2.1-1.2-3.6v-49.4
    c0-1.5,0.4-2.6,1.3-3.5c0.8-0.9,1.9-1.3,3.3-1.3c1.5,0,2.6,0.5,3.4,1.5l29.5,37.5c0.4,0.5,1,0.8,1.6,0.8c0.2,0,0.4,0,0.7-0.1
    c0.8-0.3,1.3-1,1.3-1.9v-33c0-1.5,0.4-2.6,1.2-3.5C691.8,307.5,692.8,307.1,694.1,307.1 M694.1,305.1c-1.9,0-3.4,0.6-4.6,1.9
    c-1.2,1.3-1.8,2.9-1.8,4.9v33l-29.5-37.5c-1.2-1.5-2.8-2.3-5-2.3c-1.9,0-3.5,0.6-4.7,1.9c-1.2,1.3-1.8,2.9-1.8,4.9v49.4
    c0,2.1,0.6,3.7,1.8,5c1.2,1.3,2.7,1.9,4.7,1.9c1.9,0,3.5-0.6,4.6-1.9c1.1-1.3,1.7-2.9,1.7-5v-33.2l29.5,37.8c1.3,1.5,3,2.3,5.1,2.3
    c1.9,0,3.5-0.6,4.7-1.9c1.2-1.3,1.8-2.9,1.8-5v-49.4c0-2-0.6-3.6-1.8-4.9C697.6,305.8,696,305.1,694.1,305.1L694.1,305.1z"/>
  <path id="I_contorno_1_" class="st0" d="M627.6,307.1c1.6,0,2.8,0.4,3.6,1.3c0.8,0.8,1.3,2,1.3,3.5v49.4c0,1.6-0.4,2.8-1.3,3.6
    c-0.8,0.8-2,1.3-3.6,1.3c-1.6,0-2.8-0.4-3.6-1.3c-0.8-0.8-1.3-2-1.3-3.6v-49.4c0-1.5,0.4-2.7,1.3-3.5
    C624.8,307.6,626,307.1,627.6,307.1 M627.6,305.1c-2.1,0-3.8,0.6-5,1.8c-1.2,1.2-1.8,2.9-1.8,4.9v49.4c0,2.1,0.6,3.8,1.8,5
    c1.2,1.2,2.9,1.8,5,1.8c2.1,0,3.8-0.6,5-1.8c1.2-1.2,1.8-2.9,1.8-5v-49.4c0-2.1-0.6-3.7-1.8-4.9
    C631.4,305.8,629.7,305.1,627.6,305.1L627.6,305.1z"/>
  <path id="D_contorno_1_" class="st0" d="M577.7,307.6c6.4,0,12,1.2,16.5,3.5c4.5,2.3,8,5.6,10.3,9.8c2.4,4.3,3.6,9.6,3.6,15.7
    c0,6.1-1.2,11.4-3.6,15.7c-2.3,4.3-5.8,7.6-10.3,9.9c-4.6,2.3-10.2,3.5-16.6,3.5H560c-1.5,0-2.6-0.4-3.3-1.1
    c-0.7-0.7-1.1-1.8-1.1-3.3V312c0-1.5,0.4-2.6,1.1-3.3c0.7-0.7,1.8-1.1,3.3-1.1H577.7 M567.3,358.5h9.4c14.3,0,21.8-7.6,21.8-22
    c0-14.3-7.5-21.9-21.8-21.9h-9.4c-1.1,0-2,0.9-2,2v39.9C565.3,357.6,566.2,358.5,567.3,358.5 M577.7,305.6H560
    c-2.1,0-3.6,0.6-4.8,1.7c-1.1,1.1-1.7,2.7-1.7,4.8v49.2c0,2.1,0.6,3.6,1.7,4.8c1.1,1.1,2.7,1.7,4.8,1.7h17.7
    c6.8,0,12.6-1.2,17.5-3.7c4.9-2.5,8.6-6,11.1-10.7c2.6-4.7,3.8-10.2,3.8-16.7c0-6.5-1.3-12-3.9-16.6c-2.6-4.6-6.3-8.2-11.2-10.6
    C590.2,306.8,584.4,305.6,577.7,305.6L577.7,305.6z M567.3,356.5v-39.9h9.4c13.2,0,19.8,6.6,19.8,19.9c0,13.3-6.6,20-19.8,20H567.3
    L567.3,356.5z"/>
  <path id="O_contorno_1_" class="st0" d="M512.8,306.8c5.8,0,10.9,1.2,15.1,3.6c4.2,2.4,7.5,5.8,9.7,10.2c2.3,4.5,3.5,9.8,3.5,15.9
    c0,6.1-1.2,11.5-3.5,15.9c-2.3,4.4-5.5,7.9-9.7,10.3c-4.2,2.4-9.3,3.7-15.1,3.7c-5.8,0-10.8-1.2-15.1-3.7c-4.2-2.4-7.5-5.9-9.7-10.3
    c-2.3-4.5-3.5-9.8-3.5-15.9c0-6.1,1.2-11.5,3.5-15.9c2.3-4.4,5.5-7.8,9.7-10.2C502,308,507,306.8,512.8,306.8 M512.8,359.8
    c5.8,0,10.4-2.1,13.7-6.2c3.2-4,4.9-9.7,4.9-17s-1.6-13-4.8-17c-3.3-4.1-8-6.1-13.8-6.1c-5.8,0-10.5,2.1-13.7,6.2
    c-3.2,4-4.8,9.7-4.8,17c0,7.3,1.6,13,4.8,17C502.4,357.7,507.1,359.8,512.8,359.8 M512.8,304.8c-6.2,0-11.5,1.3-16.1,3.9
    c-4.5,2.6-8.1,6.3-10.5,11c-2.5,4.8-3.7,10.4-3.7,16.9c0,6.5,1.2,12.1,3.7,16.9c2.5,4.8,6,8.5,10.5,11.1c4.5,2.6,9.9,3.9,16.1,3.9
    s11.5-1.3,16.1-3.9c4.5-2.6,8.1-6.3,10.5-11.1c2.5-4.8,3.7-10.4,3.7-16.9c0-6.5-1.2-12.1-3.7-16.9c-2.5-4.8-6-8.5-10.5-11
    C524.3,306.1,519,304.8,512.8,304.8L512.8,304.8z M512.8,357.8c-5.2,0-9.2-1.8-12.1-5.5s-4.4-8.9-4.4-15.8c0-6.9,1.5-12.1,4.4-15.7
    c2.9-3.6,7-5.4,12.2-5.4c5.2,0,9.3,1.8,12.2,5.4c2.9,3.6,4.4,8.8,4.4,15.7c0,6.9-1.5,12.1-4.4,15.8C522.1,356,518,357.8,512.8,357.8
    L512.8,357.8z"/>
  <path id="C_contorno_1_" class="st0" d="M454.5,306.8c7.2,0,13.5,2,18.7,5.9c0.8,0.6,1.1,1.1,1.3,1.4c0.2,0.4,0.3,1,0.3,1.7
    c0,1.1-0.3,2-0.8,2.7c-0.6,0.8-1.1,0.9-1.6,0.9c-0.6,0-1.1-0.1-1.5-0.2c-0.3-0.1-0.8-0.3-1.6-0.8c0,0,0,0-0.1,0
    c-2.5-1.6-4.8-2.8-7-3.5c-2.2-0.7-4.6-1.1-7.1-1.1c-6.2,0-11,2-14.3,6c-3.1,3.8-4.7,9.5-4.7,16.9c0,10.5,3.3,22.9,19,22.9
    c2.4,0,4.7-0.4,6.8-1.1c2.1-0.7,4.5-1.9,7.1-3.5c0.9-0.6,1.5-0.8,1.8-0.9c0.4-0.1,0.8-0.2,1.4-0.2c0.4,0,1,0.1,1.5,0.9
    c0.6,0.7,0.9,1.6,0.9,2.7c0,0.7-0.1,1.3-0.3,1.8c-0.2,0.5-0.7,1-1.2,1.4c-5.2,3.9-11.5,5.9-18.7,5.9c-5.7,0-10.8-1.2-15-3.6
    c-4.2-2.4-7.5-5.8-9.8-10.3c-2.3-4.5-3.5-9.9-3.5-16c0-6.1,1.2-11.5,3.5-15.9c2.3-4.4,5.6-7.8,9.8-10.2
    C443.7,308,448.8,306.8,454.5,306.8 M454.5,304.8c-6.1,0-11.4,1.3-16,3.9c-4.6,2.6-8.1,6.3-10.6,11c-2.5,4.8-3.7,10.4-3.7,16.9
    c0,6.5,1.2,12.1,3.7,16.9c2.5,4.8,6,8.5,10.6,11.1c4.6,2.6,9.9,3.9,16,3.9c7.7,0,14.3-2.1,19.9-6.3c0.8-0.6,1.4-1.3,1.8-2.1
    c0.4-0.7,0.6-1.6,0.6-2.7c0-1.5-0.4-2.8-1.3-3.9c-0.9-1.1-1.9-1.6-3.1-1.6c-0.8,0-1.4,0.1-2,0.3c-0.6,0.2-1.3,0.6-2.2,1.1
    c-2.6,1.5-4.8,2.6-6.8,3.3c-1.9,0.7-4,1-6.2,1c-11.3,0-17-7-17-20.9c0-6.9,1.4-12.1,4.3-15.6c2.8-3.5,7.1-5.2,12.7-5.2
    c2.3,0,4.4,0.3,6.4,1c2,0.7,4.2,1.8,6.5,3.3c0.8,0.5,1.5,0.9,2.1,1.1c0.6,0.2,1.3,0.3,2.2,0.3c1.2,0,2.3-0.5,3.1-1.6
    c0.8-1.1,1.3-2.4,1.3-3.9c0-1.1-0.2-1.9-0.5-2.6c-0.4-0.7-1-1.4-1.8-2.1C468.8,306.9,462.2,304.8,454.5,304.8L454.5,304.8z"/>
  <path id="CORAZON_contorno_1_" class="st1" d="M361.1,304.2c1.3,0,2.6,0.1,3.9,0.3c6.6,1.1,12,5.7,15.2,13.1
    c4.1,9.3,3.5,20.8-1.4,28.5c-12.5,19.3-38.1,31.9-43.1,34.3c-5-2.9-30.7-18.5-39.9-39.6c-3.9-8.9-3.1-19.7,2-27.4
    c3.7-5.7,9.3-8.8,15.7-8.8c16.5,0,22.3,12.1,22.5,12.6c0.3,0.7,1,1.2,1.8,1.2c0.1,0,0.2,0,0.3,0c0.8-0.1,1.4-0.7,1.6-1.4
    C340.9,314.9,348.4,304.2,361.1,304.2 M361.1,302.2c-15.2,0-23.3,13.9-23.3,13.9l0,0.2c-0.2-0.5-6.5-13.7-24.3-13.7
    c-18.1,0-26.8,22.2-19.5,39c10.5,24.2,41.6,41,41.6,41s30.6-13.2,44.9-35.4c10-15.4,2.7-41.7-15.1-44.6
    C363.9,302.3,362.5,302.2,361.1,302.2L361.1,302.2z"/>
  <path id="E_contorno_1_" class="st0" d="M247.8,307.6c4.2,0,4.5,1.7,4.5,3.3c0,1.6-0.3,3.4-4.5,3.4h-24.2c-1.1,0-2,0.9-2,2v14.5
    c0,1.1,0.9,2,2,2H246c4.2,0,4.5,1.7,4.5,3.4c0,1.6-0.3,3.3-4.5,3.3h-22.4c-1.1,0-2,0.9-2,2V357c0,1.1,0.9,2,2,2h24.2
    c4.2,0,4.5,1.7,4.5,3.4c0,1.6-0.3,3.3-4.5,3.3h-31.2c-1.5,0-2.6-0.4-3.3-1.1c-0.7-0.7-1.1-1.8-1.1-3.3V312c0-1.5,0.4-2.6,1.1-3.3
    c0.7-0.7,1.8-1.1,3.3-1.1H247.8 M247.8,305.6h-31.2c-2.1,0-3.6,0.6-4.8,1.7c-1.1,1.1-1.7,2.7-1.7,4.8v49.2c0,2.1,0.6,3.6,1.7,4.8
    c1.1,1.1,2.7,1.7,4.8,1.7h31.2c4.3,0,6.5-1.8,6.5-5.3c0-3.6-2.2-5.4-6.5-5.4h-24.2v-15.6H246c4.3,0,6.5-1.8,6.5-5.3
    c0-3.6-2.2-5.4-6.5-5.4h-22.4v-14.5h24.2c4.3,0,6.5-1.8,6.5-5.4C254.3,307.3,252.1,305.6,247.8,305.6L247.8,305.6z"/>
  <path id="W_contorno_1_" class="st0" d="M195.1,307c1.2,0,2.2,0.4,3,1.1c0.8,0.7,1.1,1.6,1.1,2.8c0,0.7-0.1,1.4-0.4,2.2l-18.3,50
    c-0.4,1-1,1.7-1.9,2.3c-1,0.6-2.1,0.9-3.3,0.9c-1.2,0-2.3-0.3-3.3-0.9c-0.9-0.6-1.5-1.3-1.9-2.3l-13.1-37c-0.3-0.8-1-1.3-1.9-1.3
    c0,0,0,0,0,0c-0.8,0-1.6,0.5-1.9,1.3l-13.5,37c-0.4,1-1,1.7-1.9,2.3c-1,0.6-2,0.9-3.3,0.9c-1.2,0-2.2-0.3-3.2-0.9
    c-0.9-0.6-1.6-1.3-1.9-2.3l-18.3-50.1c-0.3-0.8-0.4-1.5-0.4-2.1c0-1.2,0.4-2.1,1.2-2.8c0.9-0.8,2-1.2,3.3-1.2c1,0,1.9,0.3,2.7,0.8
    c0.8,0.5,1.3,1.2,1.7,2.2l13.6,39c0.3,0.8,1,1.3,1.9,1.3c0,0,0,0,0,0c0.8,0,1.6-0.5,1.9-1.3l14.1-38.8c0.4-1,1-1.8,1.7-2.3
    c0.8-0.5,1.6-0.8,2.5-0.8c0.9,0,1.8,0.3,2.6,0.8c0.8,0.5,1.3,1.3,1.7,2.3l13.5,39.4c0.3,0.8,1,1.3,1.9,1.4c0,0,0,0,0,0
    c0.8,0,1.6-0.5,1.9-1.3l14-39.6c0.4-1,0.9-1.8,1.7-2.3C193.3,307.2,194.1,307,195.1,307 M195.1,305c-1.4,0-2.6,0.4-3.7,1.1
    c-1.1,0.7-1.9,1.8-2.4,3.2L175,349l-13.5-39.4c-0.5-1.5-1.4-2.6-2.5-3.3c-1.1-0.8-2.3-1.1-3.7-1.1c-1.3,0-2.5,0.4-3.7,1.1
    c-1.1,0.8-2,1.8-2.5,3.3l-14.1,38.8l-13.6-39c-0.5-1.4-1.4-2.5-2.5-3.2c-1.1-0.7-2.4-1.1-3.8-1.1c-1.8,0-3.3,0.5-4.6,1.6
    c-1.3,1.1-1.9,2.5-1.9,4.4c0,0.9,0.2,1.8,0.5,2.8l18.3,50.1c0.5,1.4,1.5,2.5,2.8,3.3c1.3,0.8,2.7,1.2,4.3,1.2c1.6,0,3-0.4,4.3-1.2
    c1.3-0.8,2.2-1.9,2.7-3.3l13.5-37l13.1,37c0.5,1.4,1.4,2.5,2.7,3.3c1.3,0.8,2.7,1.2,4.3,1.2c1.6,0,3-0.4,4.4-1.2
    c1.3-0.8,2.2-1.9,2.8-3.3l18.3-50.1c0.4-1.1,0.5-2,0.5-2.9c0-1.8-0.6-3.3-1.8-4.3C198.2,305.5,196.8,305,195.1,305L195.1,305z"/>
</svg>
